<?xml version="1.0" encoding="UTF-8"?>
<svg id="Layer_1" data-name="Layer 1" xmlns="http://www.w3.org/2000/svg" viewBox="0 0 1920 1080">
  <defs>
    <style>
      .cls-1 {
        fill: #360568;
      }
    </style>
  </defs>
  <g>
    <rect x=".5" y=".5" width="1919" height="1079"/>
    <path d="M1919,1V1079H1V1H1919m1-1H0V1080H1920V0h0Z"/>
  </g>
  <g>
    <path class="cls-1" d="M1962,2352.97c-184.41,0-363.3-34.28-531.71-101.89-80.94-32.49-159.01-72.71-232.03-119.54-72.33-46.38-140.35-99.65-202.16-158.32-61.81-58.67-117.93-123.22-166.79-191.88-49.33-69.31-91.7-143.4-125.93-220.22-71.22-159.83-107.34-329.61-107.34-504.62s36.11-344.79,107.34-504.62c34.23-76.82,76.6-150.91,125.93-220.22,48.86-68.65,104.98-133.21,166.79-191.88,61.81-58.67,129.83-111.94,202.16-158.32,73.02-46.83,151.09-87.05,232.03-119.54,168.41-67.61,347.3-101.89,531.71-101.89s363.31,34.28,531.71,101.89c80.94,32.49,159.01,72.71,232.03,119.54,72.33,46.38,140.35,99.65,202.16,158.32,61.81,58.67,117.93,123.23,166.79,191.88,49.33,69.31,91.7,143.4,125.93,220.22,71.22,159.83,107.34,329.61,107.34,504.62s-36.11,344.8-107.34,504.62c-34.23,76.82-76.6,150.91-125.93,220.22-48.86,68.65-104.98,133.21-166.79,191.88-61.81,58.67-129.83,111.93-202.16,158.32-73.02,46.83-151.09,87.05-232.03,119.54-168.41,67.61-347.3,101.89-531.71,101.89Z"/>
    <path d="M1962-238.93c92.62,0,185.18,8.86,275.1,26.32,87.64,17.02,173.85,42.42,256.22,75.49,80.88,32.47,158.89,72.66,231.86,119.45,72.28,46.35,140.24,99.57,202,158.2,61.76,58.62,117.84,123.13,166.66,191.73,49.29,69.25,91.63,143.28,125.83,220.04,34.84,78.17,61.59,159.98,79.52,243.15,18.4,85.34,27.73,173.17,27.73,261.06s-9.33,175.72-27.73,261.06c-17.93,83.17-44.68,164.97-79.52,243.15-34.2,76.76-76.54,150.79-125.83,220.04-48.83,68.6-104.9,133.1-166.66,191.73-61.76,58.62-129.73,111.85-202,158.2-72.97,46.79-150.98,86.98-231.86,119.45-82.38,33.07-168.58,58.47-256.22,75.49-89.93,17.47-182.49,26.32-275.1,26.32s-185.18-8.86-275.1-26.32c-87.64-17.02-173.85-42.42-256.22-75.49-80.88-32.47-158.89-72.66-231.86-119.45-72.28-46.35-140.24-99.57-202-158.2-61.76-58.62-117.84-123.13-166.66-191.73-49.29-69.25-91.63-143.28-125.83-220.04-34.84-78.17-61.59-159.98-79.52-243.15-18.4-85.34-27.73-173.17-27.73-261.06s9.33-175.72,27.73-261.06c17.93-83.17,44.68-164.97,79.52-243.15,34.2-76.76,76.54-150.79,125.83-220.04,48.83-68.6,104.9-133.1,166.66-191.73,61.77-58.62,129.73-111.85,202-158.2,72.97-46.79,150.98-86.98,231.86-119.45,82.38-33.07,168.58-58.47,256.22-75.49,89.93-17.47,182.49-26.32,275.1-26.32m0-2.07c-754.97,0-1367,580.91-1367,1297.5s612.03,1297.5,1367,1297.5,1367-580.91,1367-1297.5S2716.97-241,1962-241h0Z"/>
  </g>
</svg>