<?xml version="1.0" encoding="UTF-8"?>
<svg id="Layer_1" data-name="Layer 1" xmlns="http://www.w3.org/2000/svg" viewBox="0 0 500 500">
  <defs>
    <style>
      .cls-1 {
        fill: #9e2fff;
      }

      .cls-2 {
        fill: #360568;
      }

      .cls-3 {
        fill: #a5e6ba;
      }
    </style>
  </defs>
  <circle class="cls-2" cx="250" cy="250.11" r="225"/>
  <g>
    <rect class="cls-3" x="109.93" y="240" width="254.26" height="74.4" rx="5" ry="5" transform="translate(-120.69 348.31) rotate(-60.7)"/>
    <g>
      <path class="cls-1" d="M270.16,403.42V96.58c0-2.49,2.1-4.51,4.7-4.51h196.83c2.59,0,4.7,2.02,4.7,4.51v46.03c0,2.49-2.1,4.51-4.7,4.51h-139.52c-2.59,0-4.7,2.02-4.7,4.51v55.05c0,2.49,2.1,4.51,4.7,4.51h108.75c2.59,0,4.7,2.02,4.7,4.51v46.03c0,2.49-2.1,4.51-4.7,4.51h-108.75c-2.59,0-4.7,2.02-4.7,4.51v77.61c0,2.49,2.1,4.51,4.7,4.51h139.52c2.59,0,4.7,2.02,4.7,4.51v46.03c0,2.49-2.1,4.51-4.7,4.51h-196.83c-2.59,0-4.7-2.02-4.7-4.51Z"/>
      <path class="cls-3" d="M333.58,96.27l-187.09,114.24c-3.26,1.99-3.17,6.76,.16,8.63l187.09,104.97c3.33,1.87,7.45-.54,7.45-4.36V100.53c0-3.9-4.27-6.3-7.61-4.27Z"/>
      <path class="cls-1" d="M214.03,92.07h45.54c2.76,0,5,2.24,5,5V403.42c0,2.49-2.02,4.51-4.51,4.51h-46.03c-2.49,0-4.51-2.02-4.51-4.51v-132.66c0-2.49-2.02-4.51-4.51-4.51H83.18c-2.49,0-4.51,2.02-4.51,4.51v132.66c0,2.49-2.02,4.51-4.51,4.51H28.12c-2.49,0-4.51-2.02-4.51-4.51V96.58c0-2.49,2.02-4.51,4.51-4.51h46.03c2.49,0,4.51,2.02,4.51,4.51v110.1c0,2.49,2.02,4.51,4.51,4.51h121.83c2.49,0,4.51-2.02,4.51-4.51V96.58c0-2.49,2.02-4.51,4.51-4.51Z"/>
    </g>
  </g>
</svg>